# xmcd
#
# Track frame offsets: 
#        150
#        14536
#        30965
#        43413
#        59338
#        75809
#        86428
#        98126
#        116937
#        131641
#        146502
#        165477
#        179812
#        190535
#        203808
#        215168
#        226716
#
# Disc length: 3188 seconds
#
# Revision: 2
# Processed by: cddbd v1.5.2PL0 Copyright (c) Steve Scherf et al.
# Submitted via: ExactAudioCopyFreeDBPlugin 1.0
#
DISCID=e40c7211
DTITLE=Various Artist - SSuperstars of Country - Vol 2 [CD2)
DYEAR=2005
DGENRE=Country
TTITLE0=Glen Campbell - Rhinstone Cowboy
TTITLE1=Charlie Daniels - The Devil Went Down to Georgia
TTITLE2=Merle Haggard - Okie From Muskogee
TTITLE3=Kenny Rogers - The Gambler
TTITLE4=Debby Boone - You Light Up My Life
TTITLE5=Willie Nelson - Blue Eyes Crying In The Rain
TTITLE6=Freddy Fender - Before the Next Tear Drop Falls
TTITLE7=Juice Newton - Angel of the Morning
TTITLE8=Ronnie Milsap - There's No Getting Over Me
TTITLE9=Roseanne Cash - Seven Year Ache
TTITLE10=Tom T Hall - (Old Dogs, Children and) Watermelon Wine
TTITLE11=Conway Twitty - You've Never Been This Far Before
TTITLE12=Kendalls - Heaven's Just a Sin Away
TTITLE13=Larry Gatlin and The Gatlin Brothers Band - Houston (Means I'm 
TTITLE13=One Day Closer to You)
TTITLE14=Donna Fargo - The Happiest Girl In The Whole USA
TTITLE15=Waylon Jennings and Willie Nelson - Mammas Don't Let Your Babie
TTITLE15=s Grow Up To Be Cowboys
TTITLE16=Johnny Cash - Folsom Prison Blues (Live)
EXTD=
EXTT0=
EXTT1=
EXTT2=
EXTT3=
EXTT4=
EXTT5=
EXTT6=
EXTT7=
EXTT8=
EXTT9=
EXTT10=
EXTT11=
EXTT12=
EXTT13=
EXTT14=
EXTT15=
EXTT16=
PLAYORDER=
